<svg xmlns="http://www.w3.org/2000/svg" viewBox="0 0 24 24">
  <!-- bottle body (dark) -->
  <path d="M9 5h6v1h1v11c0 .8-.7 1.5-1.5 1.5h-7C6.7 18.5 6 17.8 6 17V6h1V5z" fill="#3D2914" stroke="#5C4033" stroke-width="0.5"/>
  <!-- liquid inside -->
  <path d="M9.5 7.5v9c0 .3.3.5.6.5h3.8c.3 0 .6-.2.6-.5V7.5H9.5z" fill="#5D4E37"/>
  <!-- shine - vertical highlight -->
  <path d="M10.2 8.5v8.5l1.2.2V8.5c0-.2-.1-.3-.3-.3l-.9-.2c-.2 0-.3.1-.3.3z" fill="#E8DCC8" opacity="0.7"/>
  <!-- cap -->
  <rect x="10.2" y="3" width="3.6" height="1.8" rx="0.3" fill="#8B7355" stroke="#5C4033" stroke-width="0.3"/>
</svg>
